<svg width="1200" height="800" viewBox="0 0 1200 800" fill="none" xmlns="http://www.w3.org/2000/svg">
  <rect width="1200" height="800" rx="36" fill="#F8FAFC" />
  <rect x="70" y="90" width="1060" height="620" rx="24" fill="#E2E8F0" />
  <rect x="120" y="140" width="960" height="520" rx="18" fill="#CBD5E1" />

  <rect x="180" y="190" width="260" height="420" rx="12" fill="#94A3B8" />
  <rect x="470" y="190" width="260" height="420" rx="12" fill="#94A3B8" />
  <rect x="760" y="190" width="260" height="420" rx="12" fill="#94A3B8" />

  <rect x="205" y="220" width="210" height="42" rx="8" fill="#F1F5F9" />
  <rect x="205" y="282" width="210" height="42" rx="8" fill="#F1F5F9" />
  <rect x="205" y="344" width="210" height="42" rx="8" fill="#F1F5F9" />
  <rect x="205" y="406" width="210" height="42" rx="8" fill="#F1F5F9" />
  <rect x="205" y="468" width="210" height="42" rx="8" fill="#F1F5F9" />

  <rect x="495" y="220" width="210" height="42" rx="8" fill="#F1F5F9" />
  <rect x="495" y="282" width="210" height="42" rx="8" fill="#F1F5F9" />
  <rect x="495" y="344" width="210" height="42" rx="8" fill="#F1F5F9" />
  <rect x="495" y="406" width="210" height="42" rx="8" fill="#F1F5F9" />
  <rect x="495" y="468" width="210" height="42" rx="8" fill="#F1F5F9" />

  <rect x="785" y="220" width="210" height="42" rx="8" fill="#F1F5F9" />
  <rect x="785" y="282" width="210" height="42" rx="8" fill="#F1F5F9" />
  <rect x="785" y="344" width="210" height="42" rx="8" fill="#F1F5F9" />
  <rect x="785" y="406" width="210" height="42" rx="8" fill="#F1F5F9" />
  <rect x="785" y="468" width="210" height="42" rx="8" fill="#F1F5F9" />

  <rect x="150" y="610" width="900" height="26" rx="13" fill="#64748B" fill-opacity="0.35" />
</svg>
